# xmcd
#
# Track frame offsets:
#   150
#   5097
#   30077
#   51107
#   71745
#   87802
#   106252
#   126125
#   159867
#
# Disc length: 2420 seconds
#
# Revision: 0
# Processed by: cddbd v1.5.2PL0 Copyright (c) Steve Scherf et al.
# Submitted via: uFREEDB 1.6.2
#
DISCID=63097209
DTITLE=Let It Know - Crystalized
DYEAR=2006
DGENRE=Rock
TTITLE0=overture
TTITLE1=Hands
TTITLE2=Something Good
TTITLE3=S F U
TTITLE4=Upside Down
TTITLE5=Ceiling Fan
TTITLE6=Shadow On The Sun
TTITLE7=Let It Know
TTITLE8=Nothing Changes
EXTD=VENUS PETER
EXTT0=
EXTT1=
EXTT2=
EXTT3=
EXTT4=
EXTT5=
EXTT6=
EXTT7=
EXTT8=
PLAYORDER=
